<svg width="180" height="180" viewBox="0 0 180 180" fill="none" xmlns="http://www.w3.org/2000/svg">
<g clip-path="url(#clip0_102_2)">
<path d="M61.4318 156.273C34.9091 144.955 16.2955 118.773 16.2955 88.2954C16.2955 47.4545 49.7727 14.3864 91.0227 14.3864C132.273 14.3864 165.75 47.5227 165.75 88.3636C165.75 123.545 140.932 153 107.727 160.5" fill="white"/>
<path d="M107.727 161.523C107.25 161.523 106.841 161.182 106.705 160.705C106.568 160.159 106.909 159.614 107.455 159.477C141.136 151.841 164.659 122.591 164.659 88.3637C164.659 48.1364 131.591 15.4091 90.9545 15.4091C50.3182 15.4091 17.25 48.1364 17.25 88.3637C17.25 117.545 34.7045 143.795 61.7727 155.386C62.3182 155.591 62.5227 156.205 62.3182 156.75C62.1136 157.295 61.5 157.5 60.9545 157.295C33.1364 145.432 15.2045 118.364 15.2045 88.3637C15.2045 46.9773 49.2273 13.3636 90.9545 13.3636C132.682 13.3636 166.705 47.0455 166.705 88.3637C166.705 105.477 160.773 122.182 149.932 135.477C139.295 148.568 124.364 157.773 107.864 161.523C107.864 161.523 107.795 161.523 107.727 161.523Z" fill="black"/>
<path d="M104.045 147.136C104.045 148.364 104.114 149.523 104.114 150.75C104.114 151.091 103.977 154.091 104.182 154.364C105.682 153.818 107.182 153.273 108.682 152.727C109.091 152.523 109.091 152.182 108.75 151.636C108.75 150.409 108.409 149.114 108.068 147.955C107.455 145.841 105.341 144.136 103.159 144.205C100.364 144.341 98.8636 145.841 96.4091 146.864C97.2955 146.659 98.1136 146.386 99 146.182C97.9091 146.318 97.0227 145.636 96 145.295C94.2955 144.818 92.6591 144.886 90.9545 145.159C90.4773 145.227 89.5227 145.295 89.1136 145.568C88.6364 145.977 89.3864 146.045 89.3182 145.568C89.1136 144.477 86.6591 142.773 85.7727 142.023C81.9546 138.75 74.1818 132.341 68.9318 135.886C64.5 138.886 63.2727 147.614 64.7727 152.386C66.9546 159.477 75.1364 161.659 81.6136 163.227C88.0227 164.795 90.75 154.909 84.3409 153.341C82.0227 152.795 76.0909 151.909 74.7273 149.727C74.25 148.977 74.4546 147.818 74.5909 147C74.7273 146.114 75.0682 145.227 75.3409 144.409C75.4773 144.068 75.5455 143.727 75.6818 143.386C76.0909 142.295 75.8182 142.636 74.7273 144.341C73.8409 144.545 73.0227 144.818 72.1364 145.023C73.7727 145.023 77.8636 148.5 79.4318 150C82.0227 152.386 83.8636 155.25 87.6136 155.727C89.3182 155.932 90.75 155.455 92.3864 155.25C93.75 155.045 94.1591 155.455 95.5909 155.864C97.1591 156.341 98.9318 156.477 100.5 156.068C101.114 155.932 101.864 155.591 102.477 155.25C102.682 155.114 104.523 154.227 103.295 154.295C101.659 153.068 100.023 151.773 98.3864 150.545C99.2046 153.545 98.9318 156.682 101.114 159.205C102.955 161.318 105.682 162.614 108.545 162.205C115.909 161.114 114.545 152.455 114.409 147.068C114.136 140.591 103.909 140.523 104.045 147.136Z" fill="#43B981"/>
<path d="M108 133C104.8 139 98.6667 137.833 96 136.5L87 141.5L89.5 148L113 159C118.333 156.667 129.1 152 129.5 152C131.9 151.2 131.833 142 131.5 137.5H126.5C126.5 142.3 122.5 144.5 120.5 145C120.1 141 113.667 135 110.5 132.5L108 133Z" fill="#43B981"/>
<path d="M86.3864 148.568C83.1136 147.545 79.9091 146.455 76.6364 145.432C76.2955 145.364 76.0227 145.227 75.6818 145.159C74.1136 144.545 74.4545 145.636 76.7045 148.432C76.9773 148.295 77.25 147.886 77.4545 147.614C78.6136 146.25 79.3636 145.023 80.0455 143.318C81.0682 140.727 78.9545 137.727 76.5 137.045C73.6364 136.227 71.1818 138 70.2273 140.591C70.5 139.909 70.5682 140.114 70.0909 140.591C69.75 140.932 69.4773 141.273 69.1364 141.614C68.25 142.636 67.5 143.795 67.0909 145.091C66.2045 147.818 66.75 150.818 68.8636 152.795C70.7045 154.568 73.5 155.114 75.8182 155.864C78.4773 156.682 81.0682 157.568 83.7273 158.386C90 160.5 92.6591 150.614 86.3864 148.568Z" fill="#43B981"/>
<path d="M94.2955 134.864C88.0227 133.977 81.8182 132.545 75.75 130.568C69.8864 128.727 67.3636 136.705 71.7955 139.909C75.2045 142.364 79.2955 143.523 83.5227 143.318C90.0682 143.045 90.1364 132.818 83.5227 133.091C80.8636 133.159 79.0909 132.614 76.9773 131.045C75.6818 134.182 74.3182 137.25 73.0227 140.386C79.0909 142.295 85.2273 143.727 91.5682 144.682C94.2955 145.091 97.0227 144 97.8409 141.136C98.5227 138.75 97.0227 135.205 94.2955 134.864Z" fill="#43B981"/>
<path d="M114.205 53.6591C107.864 57.9545 99.8864 58.5 92.4545 59.6591C84.5455 60.8863 76.2955 61.5 68.8636 64.7727C66.3409 65.8636 65.7955 69.5454 67.0227 71.7954C68.5227 74.3863 71.5227 74.7273 74.0455 73.6363C77.5227 72.1363 81.4773 71.6591 85.2273 71.1136C89.3864 70.5 93.5455 69.8182 97.7045 69.2045C105.273 68.0454 112.909 66.9545 119.386 62.5909C124.773 58.7727 119.659 49.9091 114.205 53.6591Z" fill="black"/>
<path d="M101.045 59.1136C96.4091 60.3409 91.7727 61.0909 87 61.2273C82.4318 61.2955 77.7955 60.4773 73.2273 60.8182C64.2955 61.5682 56.5909 67.9773 58.0909 77.5227C58.6364 80.7955 63.0682 82.2273 65.5909 80.5909C72.1364 76.4318 79.7727 75.1364 87.2045 73.6364C95.5227 72 103.773 70.3637 112.091 68.7273C116.864 67.7727 117.068 59.6591 112.091 58.8409C103.568 57.4773 95.1136 57.3409 86.5227 58.5C78.3409 59.6591 69.4091 61.7727 62.1818 65.9318C58.8409 67.8409 57.0682 70.5682 55.3636 73.9091C54.75 75.1364 54.8182 75.2046 53.4545 75.2046C51.6136 75.2046 49.8409 74.9318 48 75.4091C44.4545 76.2273 41.7955 78.8182 40.8409 82.3636C40.1591 84.9546 41.3864 88.7727 39.9545 90.9546C43.0909 92.25 46.1591 93.6136 49.2955 94.9091C50.4545 91.9091 50.25 88.7727 49.5 85.7046C48.8864 83.1136 47.5227 80.3182 47.9318 77.6591C48.3409 75.2727 50.0455 73.1591 51.2045 71.1137C52.7727 68.5227 54.1364 65.7955 54.6818 62.8636C55.7727 57.1364 48.6818 54.0682 45.3409 58.9091C43.4318 61.7046 41.5227 64.4318 39.6136 67.2273C42.5455 68.9318 45.4773 70.6364 48.4773 72.4091C52.9091 64.0227 58.4318 55.7727 66.4773 50.3864C75.0682 44.6591 84.4773 43.2955 94.3636 46.0909C102.75 48.4773 110.659 52.8409 117.136 58.7046C120.409 61.6364 123.409 64.8409 125.864 68.3864C127.023 70.0909 128.114 71.7955 129.136 73.5682C129.545 74.3182 130.023 75 130.295 75.8182C130.5 76.3636 130.705 76.9773 130.773 77.5909C130.636 78.4091 130.909 78.2046 131.455 76.9773C129.205 78.6137 128.114 81.4091 129.614 84C130.841 86.1818 134.386 87.4773 136.636 85.8409C145.023 79.6364 139.091 69.4091 134.318 62.7955C129 55.3637 122.318 49.0227 114.614 44.1136C106.773 39.1364 97.7727 35.6591 88.5682 34.5C78.75 33.3409 68.7955 36.2727 60.75 41.7955C51.4773 48.1364 44.7273 57.3409 39.5455 67.1591C36.4773 73.0227 44.6591 77.7273 48.4091 72.3409C50.3182 69.5455 52.2273 66.8182 54.1364 64.0227C51 62.7273 47.9318 61.3636 44.7955 60.0682C43.7727 65.4546 39.2727 69.4773 37.9773 74.8637C37.2955 77.7955 37.5682 80.7273 38.25 83.6591C38.9318 86.4546 40.3636 89.25 39.2727 92.1137C37.0909 97.7727 45.5455 100.568 48.6136 96.0682C50.3864 93.4773 50.5227 90.4773 50.5227 87.4091C50.5227 86.6591 50.25 85.4318 50.5227 84.8182C50.1136 85.6364 49.9773 85.0227 50.9318 85.2955C51.4773 85.4318 52.2273 85.3636 52.7727 85.3636C56.1136 85.5 59.3182 84.75 61.7727 82.2955C63.75 80.25 64.2955 76.9773 66.4091 75.2046C68.7955 73.2273 72.6818 72.2727 75.5455 71.3864C79.1591 70.2273 82.9091 69.3409 86.6591 68.7273C94.0227 67.5 101.795 67.5682 109.159 68.7273C109.159 65.4546 109.159 62.1818 109.159 58.8409C100.432 60.5455 91.7045 62.3182 82.9773 64.0227C75.0682 65.5909 67.0909 67.2955 60.2045 71.7273C62.7273 72.75 65.1818 73.7727 67.7045 74.7955C67.3636 72.6818 71.1136 71.4546 72.5455 71.1818C75.8182 70.6364 79.2273 71.25 82.4318 71.3864C89.5227 71.7273 96.6818 70.8409 103.568 69C110.114 67.2955 107.455 57.4091 101.045 59.1136Z" fill="black"/>
<path d="M127.159 57.0682C125.455 54.9545 123.75 52.8409 122.045 50.7954C120.682 49.1591 119.455 46.9773 117.205 46.3636C113.386 45.2727 109.636 47.6591 107.045 50.1818C104.727 52.4318 103.568 54.5455 100.159 54.4091C99.75 54.4091 99.2727 53.8636 98.9318 53.9318C96.5455 56.1818 96.0682 57.2727 97.5 57.2727C97.9773 57.2727 98.5227 57.2727 99 57.2727C101.591 57.2727 104.182 57.2045 106.773 57.1364C111.818 57.0682 113.795 50.1818 109.364 47.5909C85.8409 33.8864 54.9545 42.1364 41.9318 66.2045C40.7045 68.3864 41.25 70.5682 42.75 72.4091C42.75 72.4091 42.2727 72.8864 42 73.1591C39.6818 75.2045 40.1591 79.8409 43.0227 81.2045C48 83.4545 53.3864 82.5 57.2727 78.5454C59.0455 76.7045 60.2727 74.1818 60.9545 71.7273C61.6364 69.3409 61.2273 66.1364 62.25 63.9545C63.1364 62.0455 66.2045 61.0909 68.1136 60.2045C70.6364 59.0455 73.2955 58.0909 75.9545 57.2727C81.75 55.4318 87.6818 54.0682 93.6818 52.7727C92.7955 49.5 91.8409 46.2273 90.9545 42.8864C76.2955 47.0454 61.8409 51.9545 47.6591 57.5455C44.5227 58.7727 42.0682 63.4773 45.4091 66.0682C52.4318 71.5909 61.2955 71.8636 69.5455 68.7955C77.8636 65.7273 86.8636 58.4318 96.2046 60.9545C102.545 62.6591 105.273 52.7727 98.9318 51.0682C89.8636 48.6136 81.4773 52.0227 73.3636 55.9773C67.7045 58.7045 58.5682 63.5455 52.6364 58.8409C51.8864 61.7045 51.1364 64.5682 50.3864 67.3636C64.5682 61.7727 79.0227 56.9318 93.6136 52.6364C99.9546 50.7954 97.2955 41.3864 90.8864 42.75C80.3864 45.0682 69.8182 47.5227 60.2045 52.5682C55.5682 54.9545 52.7046 57.8864 52.0227 63.2045C51.8182 64.5682 50.9318 73.5 48.2045 72.2045C48.5455 74.8636 48.8864 77.5909 49.2273 80.25C53.9318 76.1591 53.5909 69.6136 49.9773 65.0455C50.25 67.0909 50.5227 69.2045 50.7955 71.25C61.1591 52.0227 85.3636 45.3409 104.25 56.3182C105.136 53.1136 105.955 49.9773 106.841 46.7727C102.068 46.8409 94.5682 45.5454 90.8864 49.3636C87 53.3864 89.25 59.5909 93.4773 62.3182C97.6364 64.9773 103.295 65.25 107.727 63C109.705 61.9773 111.341 60.4773 112.909 58.8409C113.727 57.9545 114.818 56.1818 115.977 56.25C114.75 55.7727 113.591 55.2273 112.364 54.75C114.955 57.8864 117.477 61.0227 120.068 64.1591C121.841 66.3409 125.455 65.9318 127.295 64.1591C129.341 62.1818 128.932 59.1818 127.159 57.0682Z" fill="black"/>
<path d="M57.3409 85.7727C63.9545 85.7727 63.9545 75.5455 57.3409 75.5455C50.7273 75.5455 50.7273 85.7727 57.3409 85.7727Z" fill="black"/>
<path d="M92.3182 134.182C74.7954 134.182 60.0682 123.955 55.5682 108.205C55.4318 107.659 55.7045 107.114 56.3182 106.909C56.8636 106.773 57.4091 107.045 57.6136 107.591C62.1818 123.614 78.1364 133.636 96.4091 131.864C104.591 131.114 115.295 127.705 120.886 120.409C126.682 112.841 129.273 103.5 128.25 93.9545C128.182 93.4091 128.591 92.8636 129.205 92.7955C129.75 92.7273 130.295 93.1364 130.364 93.6818C131.455 103.705 128.659 113.591 122.591 121.568C116.659 129.341 105.273 133.023 96.6818 133.773C95.1818 134.114 93.75 134.182 92.3182 134.182Z" fill="black"/>
<path d="M91.5 97.9773C86.9318 98.7273 81.3409 100.568 76.8409 99.2045C73.3636 98.1136 71.8636 103.568 75.3409 104.659C80.9318 106.432 87.3409 104.386 93 103.432C96.5455 102.818 95.0455 97.4318 91.5 97.9773Z" fill="#E5E5E5"/>
<path d="M110.795 102C115.432 102.955 120.068 103.364 124.841 103.159C128.455 103.023 128.455 97.3637 124.841 97.5682C120.614 97.7728 116.455 97.4318 112.295 96.6137C108.75 95.8637 107.25 101.25 110.795 102Z" fill="#E5E5E5"/>
<path d="M87 7.70455C86.25 7.70455 85.6364 7.09091 85.6364 6.34091V1.36364C85.6364 0.613636 86.25 0 87 0C87.75 0 88.3636 0.613636 88.3636 1.36364V6.34091C88.3636 7.09091 87.75 7.70455 87 7.70455Z" fill="black"/>
<path d="M58.2954 13.7727C57.75 13.7727 57.2045 13.4318 57 12.8864L55.2954 8.18182C55.0227 7.50001 55.4318 6.68182 56.1136 6.4091C56.7955 6.13637 57.6136 6.54546 57.8864 7.22728L59.5909 11.8636C59.8636 12.5455 59.4545 13.3636 58.7727 13.6364C58.5682 13.7046 58.4318 13.7727 58.2954 13.7727Z" fill="black"/>
<path d="M33.4091 29.1818C33 29.1818 32.6591 29.0454 32.3864 28.7045L29.1818 24.8863C28.7045 24.3409 28.7727 23.4545 29.3182 22.9772C29.8636 22.5 30.75 22.5682 31.2273 23.1136L34.4318 26.9318C34.9091 27.4772 34.8409 28.3636 34.2955 28.8409C34.0227 29.0454 33.6818 29.1818 33.4091 29.1818Z" fill="black"/>
<path d="M15.3409 52.0909C15.1364 52.0909 14.8636 52.0227 14.6591 51.8864L10.3636 49.4318C9.68182 49.0909 9.47727 48.2046 9.88636 47.5909C10.2273 46.9091 11.1136 46.7046 11.7273 47.1136L16.0227 49.5682C16.7045 49.9091 16.9091 50.7955 16.5 51.4091C16.2955 51.8864 15.8182 52.0909 15.3409 52.0909Z" fill="black"/>
<path d="M6.27273 79.7727C6.20455 79.7727 6.13636 79.7727 6.06818 79.7727L1.15909 78.8863C0.409091 78.75 -0.0681818 78.0682 0.0681818 77.3182C0.204545 76.5682 0.886364 76.0909 1.63636 76.2273L6.54545 77.1136C7.29545 77.25 7.77273 77.9318 7.63636 78.6818C7.5 79.2954 6.95455 79.7727 6.27273 79.7727Z" fill="black"/>
<path d="M2.38636 109.705C1.70455 109.705 1.15909 109.227 1.02273 108.545C0.886364 107.795 1.36364 107.114 2.11364 106.977L7.02273 106.091C7.77273 105.955 8.45455 106.432 8.59091 107.182C8.72727 107.932 8.25 108.614 7.5 108.75L2.59091 109.636C2.59091 109.705 2.45455 109.705 2.38636 109.705Z" fill="black"/>
<path d="M14.0455 138.273C13.5682 138.273 13.0909 138 12.8864 137.591C12.5455 136.909 12.75 136.091 13.3636 135.75L17.6591 133.295C18.3409 132.955 19.1591 133.159 19.5 133.773C19.8409 134.455 19.6364 135.273 19.0227 135.614L14.7273 138.068C14.4545 138.205 14.25 138.273 14.0455 138.273Z" fill="black"/>
<path d="M34.7727 161.182C34.4318 161.182 34.1591 161.045 33.8864 160.841C33.3409 160.364 33.2727 159.477 33.75 158.932L36.9545 155.114C37.4318 154.568 38.3182 154.5 38.8636 154.977C39.4091 155.455 39.4773 156.341 39 156.886L35.7955 160.705C35.5909 161.045 35.1818 161.182 34.7727 161.182Z" fill="black"/>
<path d="M62.25 175.705C62.1136 175.705 61.9091 175.705 61.7727 175.636C61.0909 175.364 60.6818 174.614 60.9546 173.864L62.6591 169.227C62.9318 168.545 63.6818 168.136 64.4318 168.409C65.1136 168.682 65.5227 169.432 65.25 170.182L63.5455 174.818C63.3409 175.364 62.7955 175.705 62.25 175.705Z" fill="black"/>
<path d="M93 180C92.25 180 91.6364 179.386 91.6364 178.636V173.659C91.6364 172.909 92.25 172.295 93 172.295C93.75 172.295 94.3636 172.909 94.3636 173.659V178.636C94.3636 179.386 93.75 180 93 180Z" fill="black"/>
<path d="M123.409 173.659C122.864 173.659 122.318 173.318 122.114 172.773L120.409 168.136C120.136 167.455 120.545 166.636 121.227 166.364C121.909 166.091 122.727 166.5 123 167.182L124.705 171.818C124.977 172.5 124.568 173.318 123.886 173.591C123.75 173.591 123.614 173.659 123.409 173.659Z" fill="black"/>
<path d="M149.795 157.364C149.386 157.364 149.045 157.227 148.773 156.886L145.568 153.068C145.091 152.523 145.159 151.636 145.705 151.159C146.25 150.682 147.136 150.75 147.614 151.295L150.818 155.114C151.295 155.659 151.227 156.545 150.682 157.023C150.477 157.227 150.136 157.364 149.795 157.364Z" fill="black"/>
<path d="M169.023 133.091C168.818 133.091 168.545 133.023 168.341 132.886L164.045 130.432C163.364 130.091 163.159 129.205 163.568 128.591C163.909 127.909 164.795 127.705 165.409 128.114L169.705 130.568C170.386 130.909 170.591 131.795 170.182 132.409C169.909 132.818 169.432 133.091 169.023 133.091Z" fill="black"/>
<path d="M178.636 103.841C178.568 103.841 178.5 103.841 178.432 103.841L173.523 102.955C172.773 102.818 172.295 102.136 172.432 101.386C172.568 100.636 173.25 100.159 174 100.295L178.909 101.182C179.659 101.318 180.136 102 180 102.75C179.864 103.364 179.318 103.841 178.636 103.841Z" fill="black"/>
<path d="M172.636 73.9091C171.955 73.9091 171.409 73.4318 171.273 72.75C171.136 72 171.614 71.3182 172.364 71.1818L177.273 70.2954C178.023 70.1591 178.705 70.6363 178.841 71.3863C178.977 72.1363 178.5 72.8182 177.75 72.9545L172.841 73.8409C172.841 73.9091 172.773 73.9091 172.636 73.9091Z" fill="black"/>
<path d="M161.659 46.9091C161.182 46.9091 160.705 46.6364 160.5 46.2273C160.159 45.5454 160.364 44.7273 160.977 44.3863L165.273 41.9318C165.955 41.5909 166.773 41.7954 167.114 42.4091C167.455 43.0909 167.25 43.9091 166.636 44.25L162.341 46.7045C162.136 46.8409 161.864 46.9091 161.659 46.9091Z" fill="black"/>
<path d="M141.955 25.3636C141.614 25.3636 141.341 25.2273 141.068 25.0227C140.523 24.5454 140.455 23.6591 140.932 23.1136L144.136 19.2954C144.614 18.75 145.5 18.6818 146.045 19.1591C146.591 19.6363 146.659 20.5227 146.182 21.0682L142.977 24.8863C142.773 25.1591 142.364 25.3636 141.955 25.3636Z" fill="black"/>
<path d="M116.045 11.7273C115.909 11.7273 115.705 11.7273 115.568 11.6591C114.886 11.3863 114.477 10.6363 114.75 9.88635L116.455 5.24998C116.727 4.56816 117.477 4.15907 118.227 4.4318C118.909 4.70453 119.318 5.45453 119.045 6.20453L117.341 10.8409C117.136 11.3863 116.591 11.7273 116.045 11.7273Z" fill="black"/>
<path d="M52.9773 109.705H52.9091C49.2955 109.364 46.8409 106.841 46.2273 102.818C45.9545 101.182 46.0909 99.6818 46.5 98.3864C47.0455 96.75 48.2045 95.4545 49.9773 94.3636L50.1136 94.2955C50.1818 94.2273 50.25 94.2273 50.3182 94.1591C49.4318 93.75 48.6818 93.1364 48.2045 92.3864C47.3864 91.1591 47.3864 89.4545 48.0682 87.9545C48.8864 86.25 50.5227 84.8864 52.2955 84.4773C54.5455 83.9318 57.2727 84.8182 59.4545 86.7273C59.8636 87.1364 59.9318 87.75 59.5227 88.1591C59.1136 88.5682 58.5 88.6364 58.0909 88.2273C56.3864 86.7273 54.4091 86.0455 52.7727 86.4545C51.6818 86.7273 50.5227 87.6818 49.9773 88.8409C49.5682 89.6591 49.5682 90.6818 49.9773 91.2955C50.3864 91.9091 51 92.25 51.5455 92.4546C52.2955 92.7273 53.1136 92.8636 53.8636 92.9318C54.4091 93 54.8182 93.5455 54.75 94.0909C54.6818 94.6364 54.1364 95.0455 53.5909 94.9773C53.3864 94.9773 52.7727 95.1136 51.1364 96.0682L51 96.1364C49.6364 96.9545 48.8182 97.8409 48.4091 99C48.0682 100.023 48 101.182 48.2045 102.477C48.4773 104.25 49.4318 107.25 52.9773 107.591C53.5227 107.659 54 108.136 53.9318 108.682C53.9318 109.295 53.5227 109.705 52.9773 109.705Z" fill="black"/>
<path d="M85.7727 101.591C78.4091 101.591 72.4773 95.6591 72.4773 88.4318C72.4773 81.1363 78.4773 75.2727 85.7727 75.2727C93.0682 75.2727 99.0682 81.2045 99.0682 88.4318C99.0682 95.7272 93.0682 101.591 85.7727 101.591ZM85.7727 77.3182C79.5682 77.3182 74.5227 82.2954 74.5227 88.4318C74.5227 94.5682 79.5682 99.5454 85.7727 99.5454C91.9773 99.5454 97.0227 94.5682 97.0227 88.4318C96.9545 82.2954 91.9773 77.3182 85.7727 77.3182Z" fill="black"/>
<path d="M118.636 100.364C112.091 100.364 106.773 95.1137 106.773 88.6364C106.773 82.1591 112.091 76.9091 118.636 76.9091C125.182 76.9091 130.5 82.1591 130.5 88.6364C130.5 95.1137 125.182 100.364 118.636 100.364ZM118.636 78.9546C113.25 78.9546 108.818 83.3182 108.818 88.6364C108.818 93.9546 113.182 98.3182 118.636 98.3182C124.091 98.3182 128.455 93.9546 128.455 88.6364C128.455 83.3182 124.023 78.9546 118.636 78.9546Z" fill="black"/>
<path d="M81.75 91.0228C82.8044 91.0228 83.6591 90.1986 83.6591 89.1818C83.6591 88.1651 82.8044 87.3409 81.75 87.3409C80.6956 87.3409 79.8409 88.1651 79.8409 89.1818C79.8409 90.1986 80.6956 91.0228 81.75 91.0228Z" fill="black"/>
<path d="M114.068 91.0228C115.123 91.0228 115.977 90.1986 115.977 89.1818C115.977 88.1651 115.123 87.3409 114.068 87.3409C113.014 87.3409 112.159 88.1651 112.159 89.1818C112.159 90.1986 113.014 91.0228 114.068 91.0228Z" fill="black"/>
<path d="M83.1136 105.818C82.9091 105.818 82.7727 105.818 82.5682 105.818C82.0227 105.818 81.5455 105.341 81.5455 104.795C81.5455 104.25 82.0227 103.773 82.6364 103.773C94.5682 104.045 96.0682 93.2046 96.1364 92.7273C96.2045 92.1818 96.75 91.7727 97.2955 91.8409C97.8409 91.9091 98.25 92.3864 98.1818 93C98.1818 93.0682 96.5455 105.818 83.1136 105.818Z" fill="black"/>
<path d="M113.523 110.864C113.045 110.864 112.636 110.795 112.159 110.659C111.614 110.523 111.273 109.977 111.409 109.432C111.545 108.886 112.091 108.545 112.636 108.682C113.25 108.818 114.409 108.955 115.227 108.136C115.773 107.591 115.977 106.977 115.909 106.773C115.5 106.295 114.955 105.818 114.409 105.273C113.864 104.795 113.386 104.386 112.909 103.841C112.023 102.818 111.205 101.727 110.523 100.636C109.364 98.7955 108.409 96.75 107.795 94.7045C107.114 92.3864 106.773 90.4091 106.909 88.5C106.909 87.9546 107.386 87.4773 108 87.5455C108.545 87.5455 109.023 88.0227 109.023 88.6364C108.955 90.2727 109.227 92.0455 109.841 94.1591C110.386 96.0682 111.273 97.8409 112.364 99.6136C112.977 100.636 113.727 101.591 114.545 102.545C114.886 102.955 115.364 103.364 115.841 103.773C116.455 104.318 117.136 104.932 117.682 105.614C118.636 106.909 117.886 108.614 116.864 109.636C115.909 110.386 114.75 110.864 113.523 110.864Z" fill="black"/>
<path d="M113.864 111.136C111.886 111.136 110.318 109.568 110.318 107.591C110.318 105.614 111.886 104.045 113.864 104.045C115.841 104.045 117.409 105.614 117.409 107.591C117.477 109.568 115.841 111.136 113.864 111.136ZM113.864 106.159C113.045 106.159 112.364 106.841 112.364 107.659C112.364 108.477 113.045 109.159 113.864 109.159C114.682 109.159 115.364 108.477 115.364 107.659C115.364 106.841 114.682 106.159 113.864 106.159Z" fill="black"/>
<path d="M100.841 110.932C99.0682 110.932 97.6364 109.5 97.6364 107.795C97.6364 106.091 99.0682 104.659 100.841 104.659C102.614 104.659 104.045 106.091 104.045 107.795C104.045 109.5 102.545 110.932 100.841 110.932ZM100.841 106.705C100.227 106.705 99.75 107.182 99.75 107.795C99.75 108.409 100.227 108.886 100.841 108.886C101.455 108.886 101.932 108.409 101.932 107.795C101.932 107.182 101.455 106.705 100.841 106.705Z" fill="black"/>
<path d="M98.3182 123.273C96.2045 123.273 94.2273 122.932 92.3182 122.182C86.1136 119.727 83.7273 114.205 83.5909 113.932C83.3864 113.386 83.5909 112.773 84.1364 112.568C84.6818 112.364 85.2955 112.568 85.5 113.114C85.5 113.182 87.6818 118.159 93.0682 120.273C97.2273 121.909 102.205 121.432 107.932 118.841C108.477 118.636 109.091 118.841 109.295 119.386C109.5 119.932 109.295 120.545 108.75 120.75C105.068 122.386 101.523 123.273 98.3182 123.273Z" fill="black"/>
<path d="M108.409 77.3182C108.273 77.3182 108.136 77.3182 108 77.25C107.455 77.0454 107.182 76.4318 107.386 75.9545C107.386 75.8864 109.977 69.5454 117.886 70.4318C118.432 70.5 118.841 70.9773 118.773 71.5909C118.705 72.1364 118.227 72.5454 117.614 72.4773C111.341 71.7954 109.364 76.5 109.295 76.7045C109.227 77.0454 108.818 77.3182 108.409 77.3182Z" fill="black"/>
<path d="M60.4091 86.3864C60.1364 86.3864 59.9318 86.3182 59.7273 86.1137C59.3182 85.7046 59.25 85.0909 59.6591 84.6818C62.1136 81.9546 64.8409 79.5682 67.7045 77.5909C71.3864 75.0682 75.2727 73.2955 79.2273 72.2727C81.9545 71.5909 84.75 71.4546 87.4773 71.3864C88.7727 71.3182 90.1364 71.3182 91.4318 71.1818C103.841 70.1591 112.841 66.6137 118.977 60.4773C119.182 60.2727 119.523 60.1364 119.795 60.2046C120.136 60.2046 120.409 60.4091 120.545 60.6818C120.886 61.2273 129.205 73.9773 129.068 80.0455C129.068 80.5909 128.523 81.0682 127.977 81.0682C127.432 81.0682 126.955 80.5909 126.955 80.0455C127.091 75.8864 122.114 67.0909 119.455 62.9318C113.045 68.8637 103.909 72.3409 91.5682 73.3637C90.2045 73.5 88.8409 73.5 87.5454 73.5682C84.8182 73.6364 82.2955 73.7046 79.7727 74.3864C76.0227 75.3409 72.3409 77.0455 68.8636 79.4318C66.1364 81.2727 63.5455 83.5227 61.2273 86.1818C60.9545 86.25 60.6818 86.3864 60.4091 86.3864Z" fill="black"/>
<path d="M45.8182 107.455C45.4773 107.455 45.1364 107.318 44.9318 106.977C40.6364 100.568 37.9773 92.7954 36.4773 82.6363C35.1136 73.0909 37.1591 64.4318 42.8864 56.1136C49.0909 47.1136 58.9773 39.8182 68.7273 37.0909C84.4091 32.6591 98.0455 35.6591 106.705 38.9318C116.114 42.4772 121.773 46.9772 121.977 47.1818C122.455 47.5227 122.455 48.2045 122.114 48.6136C121.773 49.0227 121.091 49.0909 120.682 48.75C120.614 48.6818 115.023 44.1818 105.886 40.7727C97.5 37.6363 84.3409 34.7727 69.2727 39.0682C60 41.6591 50.5909 48.6818 44.6591 57.2727C39.2727 65.1136 37.2955 73.2954 38.5909 82.2954C40.0227 92.1818 42.6136 99.6136 46.7045 105.818C47.0455 106.295 46.9091 106.909 46.4318 107.25C46.2273 107.386 46.0227 107.455 45.8182 107.455Z" fill="black"/>
<path d="M131.864 93.8863C131.523 93.8863 131.182 93.75 130.977 93.4091C130.636 92.9318 130.773 92.3182 131.318 91.9772C135.818 89.0454 138.955 84.1363 139.909 78.4773C140.932 72.5454 139.432 66.5454 135.886 62.0454C134.523 60.3409 132.75 59.25 130.841 58.1591C129.75 57.5454 128.659 56.8636 127.568 56.0454C125.318 54.3409 123.614 52.6363 122.455 50.8636C122.114 50.3863 122.25 49.7727 122.727 49.4318C123.205 49.0909 123.818 49.2273 124.159 49.7045C125.182 51.2727 126.75 52.8409 128.795 54.4091C129.75 55.1591 130.841 55.7727 131.864 56.3863C133.841 57.5454 135.818 58.7045 137.455 60.75C141.341 65.7273 142.977 72.2727 141.886 78.8182C140.864 85.0909 137.386 90.4773 132.341 93.6818C132.273 93.8182 132.068 93.8863 131.864 93.8863Z" fill="black"/>
<path d="M100.705 138.205C97.0909 138.205 93.8182 136.5 93.6818 136.432C93.2045 136.159 93 135.545 93.2727 135.068C93.5454 134.591 94.1591 134.386 94.7045 134.659C94.7727 134.659 99.9545 137.386 103.705 135.614C105.545 134.727 106.841 132.886 107.386 130.091C107.523 129.545 108.068 129.205 108.614 129.273C109.159 129.409 109.5 129.955 109.432 130.5C108.682 133.977 107.045 136.364 104.591 137.455C103.295 138 102 138.205 100.705 138.205Z" fill="black"/>
<path d="M85.6364 165.136C80.5227 165.136 74.1136 164.591 69.3409 161.591C62.1818 157.159 62.1818 143.795 65.7273 137.25C67.4318 134.114 70.0909 131.455 73.0227 130.091C73.5682 129.818 74.1818 130.091 74.3864 130.568C74.6591 131.114 74.3864 131.727 73.9091 131.932C71.3182 133.159 69 135.477 67.5 138.205C64.3636 144.068 64.4318 156.068 70.4318 159.818C75.5454 162.955 82.9091 163.159 87.9545 163.023C88.5 163.023 88.9773 163.432 89.0455 164.045C89.0455 164.591 88.6364 165.068 88.0227 165.136C87.2727 165.136 86.5227 165.136 85.6364 165.136Z" fill="black"/>
<path d="M89.8636 156.068C81.6818 156.068 76.7045 154.295 74.9318 150.818C73.0909 147.273 75.2727 143.182 76.3636 141.409L74.5909 139.909C74.1818 139.568 74.1136 138.886 74.4545 138.477C74.7954 138.068 75.4773 138 75.8864 138.341L78.3409 140.455C78.75 140.795 78.8182 141.409 78.4773 141.886C78.4091 141.955 75 146.523 76.7045 149.864C78.1364 152.727 83.1136 154.091 90.9545 153.955C91.5 153.955 91.9773 154.364 92.0455 154.977C92.0455 155.523 91.5682 156 91.0227 156C90.6818 156.068 90.2727 156.068 89.8636 156.068Z" fill="black"/>
<path d="M118.636 158.182C118.568 158.182 118.5 158.182 118.5 158.182C117.955 158.114 117.545 157.568 117.614 157.023C118.364 151.977 112.5 142.159 112.432 142.023C112.159 141.545 112.295 140.932 112.773 140.591C113.25 140.318 113.932 140.455 114.205 140.932C114.477 141.341 120.545 151.432 119.659 157.295C119.591 157.773 119.182 158.182 118.636 158.182Z" fill="black"/>
<path d="M88.0227 163.364C87.4773 163.364 87 162.886 87 162.341C87 160.364 88.7727 157.023 88.9773 156.614C89.25 156.136 89.8636 155.932 90.4091 156.205C90.8864 156.477 91.0909 157.091 90.8182 157.568C90.1364 158.795 89.0455 161.182 89.0455 162.273C89.0455 162.886 88.5682 163.364 88.0227 163.364Z" fill="black"/>
<path d="M101.25 159.886C100.841 159.886 100.432 159.682 100.295 159.273C98.6591 155.455 93.2045 156.068 93.1364 156.068C92.5909 156.136 92.0454 155.727 91.9773 155.182C91.9091 154.636 92.3182 154.091 92.8636 154.023C93.1364 153.955 99.9545 153.136 102.205 158.455C102.409 159 102.205 159.614 101.659 159.818C101.523 159.818 101.386 159.886 101.25 159.886Z" fill="black"/>
<path d="M94.1591 170.932C94.0227 170.932 93.9545 170.932 93.8182 170.864C93 170.591 92.25 169.5 91.7727 168.409C90.8864 169.227 89.8636 169.705 89.7955 169.705C89.5227 169.841 88.8409 170.114 88.2955 169.705C88.0909 169.568 87.9545 169.364 87.8864 169.159C87.2727 166.773 88.7727 163.977 88.9091 163.636C89.1818 163.159 89.7955 162.955 90.3409 163.227C90.8182 163.5 91.0227 164.114 90.75 164.591C90.4773 165.068 90 166.159 89.8636 167.25C90.3409 166.909 90.8864 166.432 91.0227 165.955C91.0227 165.818 91.0227 165.75 91.0227 165.682C91.0909 165.136 91.5682 164.727 92.1136 164.727C92.3864 164.727 92.6591 164.864 92.8636 165.068C92.9318 165.136 93 165.273 93.0682 165.341C93 165.136 93.0682 164.864 93.2045 164.659C93.4091 164.318 93.75 164.114 94.0909 164.114C94.7727 164.114 95.0454 164.659 95.3864 165.273C95.7954 166.091 96.8182 167.932 97.9091 168.136C97.9091 168.136 97.9091 168.136 97.9773 168.136C98.0455 168.068 98.1818 167.932 98.1818 167.659C98.25 167.25 98.1136 166.841 97.7727 166.364C97.3636 166.023 97.0227 165.614 96.8864 165.341C96.5455 164.795 96.75 164.25 97.0909 163.909C97.5 163.568 98.0454 163.636 98.4545 163.977C98.7954 164.318 99.0682 164.591 99.3409 164.932C99.75 165.205 100.227 165.409 100.773 165.205C100.909 165 101.318 164.523 101.25 163.909C101.114 163.091 100.091 162.477 99.2045 162.068C98.9318 161.932 98.7273 161.727 98.6591 161.455C98.5909 161.182 98.5909 160.909 98.7273 160.636C99.1364 159.818 100.091 160.091 100.432 160.159C101.25 160.432 101.318 160.295 101.386 160.159C101.591 159.614 102.205 159.409 102.75 159.614C103.295 159.818 103.5 160.432 103.295 160.977C103.091 161.386 102.886 161.659 102.614 161.864C103.432 162.886 103.432 163.977 103.295 164.659C103.091 165.477 102.477 166.636 101.659 166.977C101.182 167.182 100.773 167.25 100.364 167.318C100.364 168 100.227 168.545 99.9545 169.023C99.4091 169.909 98.4545 170.318 97.5682 170.114C96.9545 169.977 96.4091 169.705 95.8636 169.295C95.6591 169.773 95.3182 170.182 94.8409 170.591L94.7727 170.659C94.7045 170.795 94.4318 170.932 94.1591 170.932ZM93.2045 166.091C93.3409 166.636 93.6818 167.591 94.0909 168.273C94.2273 167.795 94.0909 166.977 93.2727 165.614C93.2727 165.614 93.2727 165.545 93.2045 165.545C93.2045 165.614 93.2045 165.682 93.2045 165.818C93.2045 165.886 93.2045 166.023 93.2045 166.091Z" fill="black"/>
<path d="M121.341 148.886C120.864 148.886 120.386 148.545 120.318 148C119.432 141.386 110.727 134.045 110.659 133.909C110.25 133.5 110.182 132.886 110.591 132.477C111 132.068 111.614 132 112.023 132.409C112.5 132.818 121.341 140.432 122.364 147.727C122.432 148.273 122.023 148.818 121.477 148.886C121.477 148.818 121.409 148.886 121.341 148.886Z" fill="black"/>
<path d="M141.354 127.496C140.837 126.907 139.954 126.741 139.143 127.015C138.63 127.181 138.126 127.479 137.668 127.82C138.641 125.98 138.952 125.382 139.019 125.067C139.262 123.407 138.563 122.695 137.935 122.424C137.441 122.189 136.957 122.131 136.482 122.206C136.719 121.124 136.634 119.796 135.234 119.04C134.378 118.606 133.423 118.667 132.586 119.209C132.041 119.555 131.638 120.07 131.414 120.662C131.111 120.014 130.654 119.688 130.298 119.577C129.407 119.278 128.385 119.654 127.889 120.086C126.667 120.742 126.475 123.199 126.566 125.327C126.101 124.867 125.734 124.579 125.734 124.579C125.644 124.541 125.598 124.499 125.509 124.46C124.484 124.126 123.57 124.139 122.811 124.543C121.629 125.152 121.276 126.464 121.134 126.962L121.136 127.006C121.139 127.05 121.099 127.097 121.102 127.142C120.918 127.687 121.057 127.811 122.086 128.901C122.6 129.446 123.813 130.703 124.151 131.214C123.932 133.94 125.001 135.65 126.243 136.682C126.162 136.776 126.081 136.87 126.043 136.961C123.231 143.452 121.607 142.619 121.523 142.668C120.97 142.881 120.705 143.521 120.916 144.085C121.126 144.65 121.757 144.965 122.31 144.752C122.652 144.641 124.663 145.406 127.833 138.359C128.441 138.32 129.899 138.627 131.409 139.064C131.098 141.707 130.731 147.562 126.609 151.292C126.156 151.721 126.112 152.39 126.534 152.852C126.768 153.104 127.083 153.262 127.43 153.24C127.647 153.226 127.902 153.121 128.067 152.977C133.671 147.864 133.618 138.835 133.677 138.386C133.674 138.342 133.671 138.298 133.665 138.209C135.252 137.797 136.805 136.854 138.24 135.429C138.812 134.814 143.601 129.931 141.354 127.496ZM137.024 134.128C135.221 135.932 133.181 136.773 131.167 136.635C130.458 136.458 129.839 136.32 129.353 136.217C129.263 136.178 129.174 136.14 129.13 136.142C129.084 136.101 129.041 136.104 128.954 136.109C128.601 136.043 125.542 135.26 125.934 131.145C125.987 130.609 125.745 130.224 123.358 127.665C123.217 127.496 123.075 127.327 122.937 127.202C123.044 126.84 123.274 126.336 123.697 126.132C123.992 125.979 124.383 125.955 124.872 126.101C125.837 126.884 127.383 128.564 127.141 129.557C127.112 129.781 127.129 130.047 127.273 130.26C127.417 130.473 127.6 130.595 127.863 130.622L127.95 130.617C128.786 130.741 129.237 130.979 129.303 131.331C129.421 131.812 129.875 132.094 130.347 131.975C130.819 131.857 131.095 131.394 130.977 130.913C130.804 130.257 130.314 129.4 128.85 129.004C128.744 128.033 128.161 127.092 127.546 126.331C127.98 126.303 128.346 125.88 128.358 125.39C128.3 123.794 128.494 122.048 128.772 121.63C128.943 121.575 129.111 121.475 129.19 121.337C129.358 121.237 129.659 121.173 129.795 121.254C129.841 121.295 129.939 121.467 129.921 121.868L129.652 127.219C129.639 127.709 130.015 128.129 130.495 128.143C130.539 128.141 130.582 128.138 130.582 128.138C131.016 128.11 131.387 127.775 131.4 127.286L131.619 122.515C131.755 122.596 131.934 122.673 132.152 122.659C132.629 122.629 132.995 122.206 132.964 121.719C132.938 121.32 133.173 120.905 133.55 120.659C133.718 120.559 134.054 120.36 134.459 120.557C134.821 120.756 135.15 121.135 134.435 122.914C134.359 123.097 134.33 123.321 134.385 123.495C133.494 124.574 132.852 126.126 132.439 127.175L132.288 127.54C132.099 127.997 132.307 128.517 132.755 128.711C133.203 128.904 133.713 128.694 133.902 128.237L134.053 127.872C134.504 126.732 135.445 124.405 136.552 123.979C136.763 123.877 137.027 123.905 137.252 124.024C137.298 124.065 137.432 124.101 137.379 124.638C137.108 125.188 135.903 127.488 135.087 129.051C134.933 129.372 134.959 129.77 135.193 130.022C135.079 130.296 135.143 130.603 135.333 130.858C135.619 131.24 136.149 131.339 136.566 131.046C136.899 130.802 137.23 130.515 137.56 130.227C138.305 129.602 139.091 128.929 139.815 128.661C139.986 128.606 140.162 128.639 140.165 128.683C140.734 129.402 138.949 132.183 137.024 134.128Z" fill="#010101"/>
</g>
<defs>
<clipPath id="clip0_102_2">
<rect width="180" height="180" fill="white"/>
</clipPath>
</defs>
</svg>
