<svg xmlns="http://www.w3.org/2000/svg" viewBox="0 0 64 64" xml:space="preserve" fill="#ffffff">
<path d="M62.96,28.91c-0.42-0.41-0.85-0.81-1.27-1.22c-1.29-1.24-2.58-2.47-3.87-3.71c-1.84-1.76-3.68-3.52-5.52-5.28
	c-2.06-1.97-4.12-3.95-6.18-5.92c-1.96-1.87-3.91-3.75-5.87-5.62c-1.52-1.46-3.05-2.92-4.57-4.39c-0.5-0.48-1-0.96-1.49-1.44
	C33.56,0.73,32.96-0.04,32,0c-0.96-0.04-1.56,0.73-2.19,1.34c-0.5,0.48-1,0.96-1.49,1.44c-1.52,1.46-3.05,2.93-4.57,4.39
	c-1.95,1.87-3.91,3.75-5.87,5.62c-2.06,1.97-4.12,3.95-6.18,5.92c-1.84,1.76-3.68,3.52-5.52,5.28C4.9,25.22,3.6,26.46,2.31,27.7
	c-0.42,0.41-0.85,0.81-1.27,1.22c0,0-3.12,3.95,1.43,5.64c0,0.02,2.19,0.03,5.38,0.04v24.75c0,2.56,2.1,4.66,4.66,4.66h10.31V45.61
	c0-1.14,0.94-2.08,2.08-2.08h13.8c1.14,0,2.08,0.94,2.08,2.08V64h10.31c2.56,0,4.66-2.1,4.66-4.66V34.59c3.39,0,5.77-0.01,5.77-0.04
	C66.08,32.86,62.96,28.91,62.96,28.91z"/>
</svg>
