<svg xmlns="http://www.w3.org/2000/svg" viewBox="0 0 64 64" xml:space="preserve" fill="#ffffff">
<path d="M56.25,64H7.75C3.48,64,0,60.59,0,56.41V15.59C0,11.41,3.48,8,7.75,8H32c2.21,0,4,1.8,4,4.01s-1.79,4.01-4,4.01H8v39.95h48
	V33.8c0-2.22,1.79-4.01,4-4.01s4,1.8,4,4.01v22.61C64,60.59,60.52,64,56.25,64z"/>
<path d="M63.99,4c-0.01-0.19-0.02-0.38-0.06-0.57c-0.01-0.06-0.02-0.13-0.03-0.19c-0.05-0.22-0.11-0.44-0.19-0.66
	c0-0.01-0.01-0.02-0.02-0.03c-0.02-0.06-0.05-0.11-0.08-0.16c-0.08-0.17-0.16-0.33-0.25-0.48c-0.04-0.07-0.08-0.13-0.13-0.19
	c-0.1-0.14-0.21-0.28-0.32-0.4c-0.05-0.05-0.09-0.1-0.14-0.15c-0.17-0.17-0.34-0.32-0.53-0.46c-0.01,0-0.01-0.01-0.02-0.01
	c-0.18-0.13-0.38-0.23-0.59-0.33c-0.07-0.03-0.14-0.06-0.21-0.08c-0.16-0.06-0.32-0.11-0.48-0.15c-0.07-0.02-0.14-0.04-0.22-0.05
	C60.5,0.03,60.26,0,60.01,0H42.7c-2.2,0-3.99,1.84-3.99,4.12s1.79,4.12,3.99,4.12h7.38L33.23,24.9c-1.59,1.57-1.65,4.18-0.12,5.83
	c0.78,0.85,1.83,1.27,2.88,1.27c0.99,0,1.98-0.38,2.76-1.14l17.27-17.08v6.48c0,2.28,1.79,4.12,3.99,4.12c2.2,0,3.99-1.84,3.99-4.12
	V4.12C64,4.08,63.99,4.04,63.99,4z"/>
</svg>
