<?xml version="1.0" encoding="utf-8"?>
<!-- Generator: Adobe Illustrator 27.4.0, SVG Export Plug-In . SVG Version: 6.00 Build 0)  -->
<svg version="1.1" id="top" xmlns="http://www.w3.org/2000/svg" xmlns:xlink="http://www.w3.org/1999/xlink" x="0px" y="0px"
	 viewBox="0 0 64 64" style="enable-background:new 0 0 64 64;" xml:space="preserve">
<path d="M32,0C14.33,0,0,14.33,0,32c0,17.67,14.33,32,32,32s32-14.33,32-32C64,14.33,49.67,0,32,0z M53.5,41.39
	C53.1,41.8,52.56,42,52.01,42c-0.47,0-0.95-0.15-1.32-0.46L31.86,26.25L13.33,41.53c-0.82,0.67-2.08,0.62-2.81-0.13
	c-0.74-0.74-0.68-1.89,0.14-2.56l19.86-16.37c0.75-0.62,1.9-0.63,2.66-0.01l20.16,16.37C54.15,39.5,54.23,40.65,53.5,41.39z"/>
</svg>
