<svg xmlns="http://www.w3.org/2000/svg" viewBox="0 0 64 64"  xml:space="preserve" fill="#ffffff">
  <path d="M53.99,5H10.01C4.49,5,0,9.54,0,15.13v25.24C0,45.95,4.49,50.5,10.01,50.5h14.56l-1.51,4.45h-8.48c-1.11,0-2,0.91-2,2.03
	c0,1.12,0.9,2.03,2,2.03h34.26c1.11,0,2-0.91,2-2.03c0-1.12-0.9-2.03-2-2.03h-8.21l-1.94-4.45h15.3C59.51,50.5,64,45.95,64,40.37
	V15.13C64,9.54,59.51,5,53.99,5z M60,40.37c0,3.35-2.69,6.08-6.01,6.08H10.01C6.7,46.45,4,43.72,4,40.37V15.13
	c0-3.35,2.69-6.08,6.01-6.08h43.98c3.31,0,6.01,2.73,6.01,6.08V40.37z"/>
</svg>
